# This file uses centimeters as units for non-parametric coordinates.

mtllib glass.mtl
g default
v 0.096721 0.002364 -0.031427
v 0.082276 0.002364 -0.059777
v 0.059777 0.002364 -0.082276
v 0.031427 0.002364 -0.096721
v -0.000000 0.002364 -0.101699
v -0.031427 0.002364 -0.096721
v -0.059777 0.002364 -0.082276
v -0.082276 0.002364 -0.059777
v -0.096721 0.002364 -0.031427
v -0.101699 0.002364 -0.000000
v -0.096721 0.002364 0.031427
v -0.082276 0.002364 0.059777
v -0.059777 0.002364 0.082276
v -0.031427 0.002364 0.096721
v -0.000000 0.002364 0.101698
v 0.031426 0.002364 0.096721
v 0.059777 0.002364 0.082276
v 0.082276 0.002364 0.059777
v 0.096721 0.002364 0.031426
v 0.101698 0.002364 -0.000000
v 0.096721 0.046789 -0.031427
v 0.082276 0.046789 -0.059777
v 0.059777 0.046789 -0.082276
v 0.031427 0.046789 -0.096721
v -0.000000 0.046789 -0.101699
v -0.031427 0.046789 -0.096721
v -0.059777 0.046789 -0.082276
v -0.082276 0.046789 -0.059777
v -0.096721 0.046789 -0.031427
v -0.101699 0.046789 -0.000000
v -0.096721 0.046789 0.031427
v -0.082276 0.046789 0.059777
v -0.059777 0.046789 0.082276
v -0.031427 0.046789 0.096721
v -0.000000 0.046789 0.101698
v 0.031426 0.046789 0.096721
v 0.059777 0.046789 0.082276
v 0.082276 0.046789 0.059777
v 0.096721 0.046789 0.031426
v 0.101698 0.046789 -0.000000
v 0.096721 0.574685 -0.031427
v 0.082276 0.574685 -0.059777
v 0.059777 0.574685 -0.082276
v 0.031427 0.574685 -0.096721
v -0.000000 0.574685 -0.101699
v -0.031427 0.574685 -0.096721
v -0.059777 0.574685 -0.082276
v -0.082276 0.574685 -0.059777
v -0.096721 0.574685 -0.031427
v -0.101699 0.574685 -0.000000
v -0.096721 0.574685 0.031427
v -0.082276 0.574685 0.059777
v -0.059777 0.574685 0.082276
v -0.031427 0.574685 0.096721
v -0.000000 0.574685 0.101698
v 0.031426 0.574685 0.096721
v 0.059777 0.574685 0.082276
v 0.082276 0.574685 0.059777
v 0.096721 0.574685 0.031426
v 0.101698 0.574685 -0.000000
v 0.951057 2.316687 -0.309017
v 0.809018 2.316687 -0.587786
v 0.587786 2.316687 -0.809018
v 0.309017 2.316687 -0.951057
v 0.000000 2.316687 -1.000000
v -0.309017 2.316687 -0.951057
v -0.587785 2.316687 -0.809017
v -0.809017 2.316687 -0.587785
v -0.951057 2.316687 -0.309017
v -1.000000 2.316687 0.000000
v -0.951057 2.316687 0.309017
v -0.809017 2.316687 0.587785
v -0.587785 2.316687 0.809017
v -0.309017 2.316687 0.951057
v -0.000000 2.316687 1.000000
v 0.309017 2.316687 0.951057
v 0.587785 2.316687 0.809017
v 0.809017 2.316687 0.587785
v 0.951057 2.316687 0.309017
v 1.000000 2.316687 0.000000
v -0.000000 0.002364 -0.000000
v -0.000000 1.803524 0.000000
v 0.096721 1.472507 -0.031427
v 0.096721 1.737832 -0.031427
v 0.082276 1.472507 -0.059777
v 0.082276 1.737832 -0.059777
v 0.059777 1.472507 -0.082276
v 0.059777 1.737832 -0.082276
v 0.031427 1.472507 -0.096721
v 0.031427 1.737832 -0.096721
v -0.000000 1.472507 -0.101699
v -0.000000 1.737832 -0.101699
v -0.031427 1.472507 -0.096721
v -0.031427 1.737832 -0.096721
v -0.059777 1.472507 -0.082276
v -0.059777 1.737832 -0.082276
v -0.082276 1.472507 -0.059777
v -0.082276 1.737832 -0.059777
v -0.096721 1.472507 -0.031427
v -0.096721 1.737832 -0.031427
v -0.101699 1.472507 -0.000000
v -0.101699 1.737832 -0.000000
v -0.096721 1.472507 0.031427
v -0.096721 1.737832 0.031427
v -0.082276 1.472507 0.059777
v -0.082276 1.737832 0.059777
v -0.059777 1.472507 0.082276
v -0.059777 1.737832 0.082276
v -0.031427 1.472507 0.096721
v -0.031427 1.737832 0.096721
v -0.000000 1.472507 0.101698
v -0.000000 1.737832 0.101698
v 0.031426 1.472507 0.096721
v 0.031426 1.737832 0.096721
v 0.059777 1.472507 0.082276
v 0.059777 1.737832 0.082276
v 0.082276 1.472507 0.059777
v 0.082276 1.737832 0.059777
v 0.096721 1.472507 0.031426
v 0.096721 1.737832 0.031426
v 0.101698 1.472507 -0.000000
v 0.101698 1.737832 -0.000000
v 0.274932 0.002364 -0.089330
v 0.233871 0.002364 -0.169917
v 0.233871 0.046789 -0.169917
v 0.274932 0.046789 -0.089330
v 0.169917 0.002364 -0.233871
v 0.169917 0.046789 -0.233871
v 0.089330 0.002364 -0.274932
v 0.089330 0.046789 -0.274932
v -0.000000 0.002364 -0.289080
v -0.000000 0.046789 -0.289080
v -0.089330 0.002364 -0.274932
v -0.089330 0.046789 -0.274932
v -0.169917 0.002364 -0.233871
v -0.169917 0.046789 -0.233871
v -0.233871 0.002364 -0.169917
v -0.233871 0.046789 -0.169917
v -0.274932 0.002364 -0.089330
v -0.274932 0.046789 -0.089330
v -0.289080 0.002364 -0.000000
v -0.289080 0.046789 -0.000000
v -0.274932 0.002364 0.089330
v -0.274932 0.046789 0.089330
v -0.233871 0.002364 0.169917
v -0.233871 0.046789 0.169917
v -0.169917 0.002364 0.233871
v -0.169917 0.046789 0.233871
v -0.089330 0.002364 0.274932
v -0.089330 0.046789 0.274932
v 0.000000 0.002364 0.289080
v 0.000000 0.046789 0.289080
v 0.089330 0.002364 0.274932
v 0.089330 0.046789 0.274932
v 0.169917 0.002364 0.233871
v 0.169917 0.046789 0.233871
v 0.233871 0.002364 0.169917
v 0.233871 0.046789 0.169917
v 0.274932 0.002364 0.089330
v 0.274932 0.046789 0.089330
v 0.289080 0.002364 0.000000
v 0.289080 0.046789 0.000000
vt 0.648603 0.107966
vt 0.626409 0.064408
vt 0.591842 0.029841
vt 0.548284 0.007647
vt 0.500000 -0.000000
vt 0.451716 0.007647
vt 0.408159 0.029841
vt 0.373591 0.064409
vt 0.351397 0.107966
vt 0.343750 0.156250
vt 0.351397 0.204534
vt 0.373591 0.248091
vt 0.408159 0.282659
vt 0.451716 0.304853
vt 0.500000 0.312500
vt 0.548284 0.304853
vt 0.591841 0.282659
vt 0.626409 0.248091
vt 0.648603 0.204534
vt 0.656250 0.156250
vt 0.375000 0.312500
vt 0.387500 0.312500
vt 0.400000 0.312500
vt 0.412500 0.312500
vt 0.425000 0.312500
vt 0.437500 0.312500
vt 0.450000 0.312500
vt 0.462500 0.312500
vt 0.475000 0.312500
vt 0.487500 0.312500
vt 0.500000 0.312500
vt 0.512500 0.312500
vt 0.525000 0.312500
vt 0.537500 0.312500
vt 0.550000 0.312500
vt 0.562500 0.312500
vt 0.575000 0.312500
vt 0.587500 0.312500
vt 0.600000 0.312500
vt 0.612500 0.312500
vt 0.625000 0.312500
vt 0.375000 0.406485
vt 0.387500 0.406485
vt 0.400000 0.406485
vt 0.412500 0.406485
vt 0.425000 0.406485
vt 0.437500 0.406485
vt 0.450000 0.406485
vt 0.462500 0.406485
vt 0.475000 0.406485
vt 0.487500 0.406485
vt 0.500000 0.406485
vt 0.512500 0.406485
vt 0.525000 0.406485
vt 0.537500 0.406485
vt 0.550000 0.406485
vt 0.562500 0.406485
vt 0.575000 0.406485
vt 0.587500 0.406485
vt 0.600000 0.406485
vt 0.612500 0.406485
vt 0.625000 0.406485
vt 0.375000 0.500470
vt 0.648603 0.795466
vt 0.626409 0.751908
vt 0.591842 0.717341
vt 0.548284 0.695147
vt 0.500000 0.687500
vt 0.451716 0.695147
vt 0.408159 0.717341
vt 0.373591 0.751909
vt 0.351397 0.795466
vt 0.343750 0.843750
vt 0.351397 0.892034
vt 0.373591 0.935591
vt 0.408159 0.970159
vt 0.451716 0.992353
vt 0.500000 1.000000
vt 0.548284 0.992353
vt 0.591841 0.970159
vt 0.626409 0.935591
vt 0.648603 0.892034
vt 0.656250 0.843750
vt 0.500000 0.150000
vt 0.500000 0.837500
vt 0.625000 0.547467
vt 0.375000 0.641443
vt 0.387500 0.500470
vt 0.375000 0.547467
vt 0.400000 0.500470
vt 0.387500 0.547467
vt 0.412500 0.500470
vt 0.400000 0.547467
vt 0.425000 0.500470
vt 0.412500 0.547467
vt 0.437500 0.500470
vt 0.425000 0.547467
vt 0.450000 0.500470
vt 0.437500 0.547467
vt 0.462500 0.500470
vt 0.450000 0.547467
vt 0.475000 0.500470
vt 0.462500 0.547467
vt 0.487500 0.500470
vt 0.475000 0.547467
vt 0.500000 0.500470
vt 0.487500 0.547467
vt 0.512500 0.500470
vt 0.500000 0.547467
vt 0.525000 0.500470
vt 0.512500 0.547467
vt 0.537500 0.500470
vt 0.525000 0.547467
vt 0.550000 0.500470
vt 0.537500 0.547467
vt 0.562500 0.500470
vt 0.550000 0.547467
vt 0.575000 0.500470
vt 0.562500 0.547467
vt 0.587500 0.500470
vt 0.575000 0.547467
vt 0.600000 0.500470
vt 0.587500 0.547467
vt 0.612500 0.500470
vt 0.600000 0.547467
vt 0.625000 0.500470
vt 0.612500 0.547467
vt 0.387500 0.641443
vt 0.375000 0.688440
vt 0.400000 0.641443
vt 0.387500 0.688440
vt 0.412500 0.641443
vt 0.400000 0.688440
vt 0.425000 0.641443
vt 0.412500 0.688440
vt 0.437500 0.641443
vt 0.425000 0.688440
vt 0.450000 0.641443
vt 0.437500 0.688440
vt 0.462500 0.641443
vt 0.450000 0.688440
vt 0.475000 0.641443
vt 0.462500 0.688440
vt 0.487500 0.641443
vt 0.475000 0.688440
vt 0.500000 0.641443
vt 0.487500 0.688440
vt 0.512500 0.641443
vt 0.500000 0.688440
vt 0.525000 0.641443
vt 0.512500 0.688440
vt 0.537500 0.641443
vt 0.525000 0.688440
vt 0.550000 0.641443
vt 0.537500 0.688440
vt 0.562500 0.641443
vt 0.550000 0.688440
vt 0.575000 0.641443
vt 0.562500 0.688440
vt 0.587500 0.641443
vt 0.575000 0.688440
vt 0.600000 0.641443
vt 0.587500 0.688440
vt 0.612500 0.641443
vt 0.600000 0.688440
vt 0.625000 0.641443
vt 0.625000 0.688440
vt 0.612500 0.688440
vt 0.375000 0.312500
vt 0.387500 0.312500
vt 0.387500 0.406485
vt 0.375000 0.406485
vt 0.400000 0.312500
vt 0.400000 0.406485
vt 0.412500 0.312500
vt 0.412500 0.406485
vt 0.425000 0.312500
vt 0.425000 0.406485
vt 0.437500 0.312500
vt 0.437500 0.406485
vt 0.450000 0.312500
vt 0.450000 0.406485
vt 0.462500 0.312500
vt 0.462500 0.406485
vt 0.475000 0.312500
vt 0.475000 0.406485
vt 0.487500 0.312500
vt 0.487500 0.406485
vt 0.500000 0.312500
vt 0.500000 0.406485
vt 0.512500 0.312500
vt 0.512500 0.406485
vt 0.525000 0.312500
vt 0.525000 0.406485
vt 0.537500 0.312500
vt 0.537500 0.406485
vt 0.550000 0.312500
vt 0.550000 0.406485
vt 0.562500 0.312500
vt 0.562500 0.406485
vt 0.575000 0.312500
vt 0.575000 0.406485
vt 0.587500 0.312500
vt 0.587500 0.406485
vt 0.600000 0.312500
vt 0.600000 0.406485
vt 0.612500 0.312500
vt 0.612500 0.406485
vt 0.625000 0.312500
vt 0.625000 0.406485
vn 0.951057 0.000000 -0.309016
vn 0.809019 0.000000 -0.587783
vn 0.809019 0.000000 -0.587783
vn 0.951057 0.000000 -0.309016
vn 0.587784 0.000000 -0.809018
vn 0.587784 0.000000 -0.809018
vn 0.309018 0.000000 -0.951056
vn 0.309018 0.000000 -0.951056
vn 0.000001 0.000000 -1.000000
vn 0.000001 0.000000 -1.000000
vn -0.309017 0.000000 -0.951056
vn -0.309017 0.000000 -0.951056
vn -0.587784 0.000000 -0.809018
vn -0.587784 0.000000 -0.809018
vn -0.809018 0.000000 -0.587783
vn -0.809018 0.000000 -0.587783
vn -0.951057 0.000000 -0.309016
vn -0.951057 0.000000 -0.309016
vn -1.000000 0.000000 0.000000
vn -1.000000 0.000000 0.000000
vn -0.951057 0.000000 0.309016
vn -0.951057 0.000000 0.309016
vn -0.809018 0.000000 0.587785
vn -0.809018 0.000000 0.587785
vn -0.587784 0.000000 0.809018
vn -0.587784 0.000000 0.809018
vn -0.309016 0.000000 0.951057
vn -0.309016 0.000000 0.951057
vn 0.000000 0.000000 1.000000
vn 0.000000 0.000000 1.000000
vn 0.309017 0.000000 0.951057
vn 0.309017 0.000000 0.951057
vn 0.587784 0.000000 0.809018
vn 0.587784 0.000000 0.809018
vn 0.809018 0.000000 0.587784
vn 0.809018 0.000000 0.587784
vn 0.951056 0.000000 0.309018
vn 0.951056 0.000000 0.309018
vn 1.000000 0.000000 0.000000
vn 1.000000 0.000000 0.000000
vn 0.951057 0.000000 -0.309014
vn 0.809017 0.000000 -0.587785
vn 0.809017 0.000000 -0.587785
vn 0.951057 0.000000 -0.309014
vn 0.587786 0.000000 -0.809017
vn 0.587786 0.000000 -0.809017
vn 0.309014 0.000000 -0.951058
vn 0.309014 0.000000 -0.951057
vn 0.000000 0.000000 -1.000000
vn -0.000000 0.000000 -1.000000
vn -0.309014 0.000000 -0.951058
vn -0.309014 0.000000 -0.951057
vn -0.587784 0.000000 -0.809018
vn -0.587784 0.000000 -0.809018
vn -0.809019 0.000000 -0.587783
vn -0.809019 0.000000 -0.587783
vn -0.951058 0.000000 -0.309014
vn -0.951058 0.000000 -0.309014
vn -1.000000 0.000000 0.000000
vn -1.000000 0.000000 0.000000
vn -0.951057 0.000000 0.309014
vn -0.951057 0.000000 0.309014
vn -0.809018 0.000000 0.587784
vn -0.809018 0.000000 0.587784
vn -0.587784 0.000000 0.809018
vn -0.587784 0.000000 0.809018
vn -0.309014 0.000000 0.951057
vn -0.309014 0.000000 0.951058
vn 0.000001 0.000000 1.000000
vn 0.000001 0.000000 1.000000
vn 0.309014 0.000000 0.951057
vn 0.309014 0.000000 0.951057
vn 0.587783 0.000000 0.809018
vn 0.587783 0.000000 0.809018
vn 0.809019 0.000000 0.587783
vn 0.809019 0.000000 0.587783
vn 0.951057 0.000000 0.309014
vn 0.951057 0.000000 0.309014
vn 1.000000 0.000000 0.000003
vn 1.000000 0.000000 0.000003
vn 0.000000 -1.000000 -0.000000
vn 0.000000 -1.000000 0.000000
vn -0.000001 -1.000000 -0.000000
vn -0.000001 -1.000000 -0.000001
vn -0.000001 -1.000000 -0.000001
vn 0.000000 -1.000000 -0.000000
vn -0.000000 -1.000000 -0.000000
vn -0.000000 -1.000000 -0.000001
vn -0.000000 -1.000000 -0.000001
vn -0.000000 -1.000000 0.000001
vn -0.000000 -1.000000 0.000000
vn -0.000000 -1.000000 -0.000000
vn -0.000000 -1.000000 0.000000
vn -0.000000 -1.000000 -0.000000
vn -0.000001 -1.000000 -0.000000
vn -0.000001 -1.000000 0.000000
vn 0.000000 -1.000000 0.000000
vn 0.000000 -1.000000 0.000000
vn 0.000000 -1.000000 0.000000
vn 0.000000 -1.000000 0.000000
vn 0.000000 -1.000000 -0.000000
vn -0.434212 0.889694 0.141084
vn -0.369363 0.889694 0.268358
vn -0.000000 1.000000 -0.000000
vn -0.268358 0.889694 0.369363
vn -0.141084 0.889694 0.434212
vn -0.000000 0.889694 0.456557
vn 0.141084 0.889694 0.434212
vn 0.268358 0.889694 0.369363
vn 0.369363 0.889694 0.268358
vn 0.434212 0.889694 0.141084
vn 0.456558 0.889694 0.000000
vn 0.434212 0.889694 -0.141084
vn 0.369363 0.889694 -0.268358
vn 0.268358 0.889694 -0.369363
vn 0.141084 0.889694 -0.434212
vn -0.000000 0.889694 -0.456557
vn -0.141084 0.889694 -0.434212
vn -0.268358 0.889694 -0.369363
vn -0.369363 0.889694 -0.268358
vn -0.434212 0.889694 -0.141084
vn -0.456558 0.889694 -0.000001
vn 0.951057 0.000000 -0.309014
vn 0.542610 -0.821274 -0.176304
vn 0.570534 -0.821274 0.000001
vn 1.000000 -0.000000 0.000003
vn 0.809017 0.000000 -0.587785
vn 0.461572 -0.821274 -0.335352
vn 0.587786 0.000000 -0.809017
vn 0.335351 -0.821274 -0.461572
vn 0.309014 0.000000 -0.951057
vn 0.176304 -0.821274 -0.542610
vn -0.000000 0.000000 -1.000000
vn -0.000000 -0.821274 -0.570535
vn -0.309014 0.000000 -0.951057
vn -0.176304 -0.821274 -0.542611
vn -0.587784 0.000000 -0.809018
vn -0.335352 -0.821274 -0.461572
vn -0.809018 -0.000000 -0.587783
vn -0.461572 -0.821274 -0.335351
vn -0.951057 -0.000000 -0.309014
vn -0.542611 -0.821274 -0.176305
vn -1.000000 -0.000000 0.000000
vn -0.570535 -0.821274 -0.000000
vn -0.951057 -0.000000 0.309014
vn -0.542611 -0.821274 0.176305
vn -0.809018 -0.000000 0.587785
vn -0.461572 -0.821274 0.335352
vn -0.587784 0.000000 0.809018
vn -0.335351 -0.821274 0.461572
vn -0.309014 0.000000 0.951057
vn -0.176304 -0.821274 0.542611
vn 0.000001 0.000000 1.000000
vn 0.000000 -0.821274 0.570534
vn 0.309014 0.000000 0.951057
vn 0.176304 -0.821274 0.542611
vn 0.587783 0.000000 0.809018
vn 0.335351 -0.821274 0.461572
vn 0.809018 -0.000000 0.587783
vn 0.461572 -0.821274 0.335352
vn 0.951057 -0.000000 0.309014
vn 0.542611 -0.821274 0.176305
vn 0.438218 -0.840593 -0.318384
vn 0.515157 -0.840593 -0.167384
vn 0.318384 -0.840593 -0.438219
vn 0.167384 -0.840593 -0.515157
vn 0.000000 -0.840593 -0.541668
vn -0.167384 -0.840593 -0.515157
vn -0.318384 -0.840593 -0.438218
vn -0.438219 -0.840593 -0.318384
vn -0.515157 -0.840593 -0.167385
vn -0.541668 -0.840593 0.000000
vn -0.515157 -0.840593 0.167385
vn -0.438218 -0.840593 0.318384
vn -0.318384 -0.840593 0.438219
vn -0.167384 -0.840593 0.515157
vn 0.000000 -0.840593 0.541668
vn 0.167384 -0.840593 0.515157
vn 0.318384 -0.840593 0.438219
vn 0.438218 -0.840593 0.318384
vn 0.515157 -0.840593 0.167385
vn 0.541668 -0.840593 0.000001
vn 0.000000 -1.000000 -0.000000
vn 0.000000 -1.000000 0.000000
vn 0.000000 1.000000 0.000000
vn 0.000000 1.000000 0.000000
vn 0.000000 1.000000 0.000000
vn 0.000000 1.000000 0.000000
vn -0.000001 -1.000000 -0.000001
vn 0.000000 1.000000 0.000000
vn 0.000000 1.000000 0.000000
vn -0.000001 -1.000000 -0.000001
vn 0.000000 1.000000 0.000000
vn 0.000000 1.000000 0.000000
vn 0.000000 -1.000000 -0.000000
vn 0.000000 1.000000 -0.000000
vn 0.000000 1.000000 -0.000000
vn 0.000000 -1.000000 -0.000000
vn 0.000000 1.000000 -0.000000
vn 0.000000 1.000000 -0.000000
vn 0.000000 -1.000000 -0.000000
vn 0.000000 1.000000 0.000000
vn 0.000000 1.000000 0.000000
vn 0.000000 -1.000000 -0.000000
vn 0.000000 1.000000 0.000000
vn 0.000000 1.000000 0.000000
vn 0.000000 -1.000000 0.000000
vn 0.000000 1.000000 0.000000
vn 0.000000 1.000000 0.000000
vn 0.000000 -1.000000 0.000000
vn 0.000000 1.000000 0.000000
vn 0.000000 1.000000 0.000000
vn 0.000000 -1.000000 0.000000
vn 0.000000 1.000000 0.000000
vn 0.000000 1.000000 0.000000
vn 0.000000 -1.000000 0.000000
vn 0.000000 1.000000 0.000000
vn 0.000000 1.000000 0.000000
vn 0.000000 -1.000000 -0.000000
vn 0.000000 1.000000 0.000000
vn 0.000000 1.000000 0.000000
vn -0.000001 -1.000000 -0.000000
vn 0.000000 1.000000 0.000000
vn 0.000000 1.000000 0.000000
vn -0.000001 -1.000000 0.000000
vn 0.000000 1.000000 0.000000
vn 0.000000 1.000000 0.000000
vn 0.000000 -1.000000 0.000000
vn 0.000000 1.000000 0.000000
vn 0.000000 1.000000 0.000000
vn 0.000000 -1.000000 0.000000
vn 0.000000 1.000000 0.000000
vn 0.000000 1.000000 0.000000
vn 0.000000 -1.000000 0.000000
vn 0.000000 1.000000 0.000000
vn 0.000000 1.000000 0.000000
vn 0.000000 -1.000000 0.000000
vn 0.000000 1.000000 0.000000
vn 0.000000 1.000000 0.000000
vn 0.000000 -1.000000 0.000000
vn 0.000000 1.000000 0.000000
vn 0.000000 1.000000 0.000000
s 1
g pCylinder1
usemtl initialShadingGroup
f 123/169/1 124/170/2 125/171/3 126/172/4
f 124/170/2 127/173/5 128/174/6 125/171/3
f 127/173/5 129/175/7 130/176/8 128/174/6
f 129/175/7 131/177/9 132/178/10 130/176/8
f 131/177/9 133/179/11 134/180/12 132/178/10
f 133/179/11 135/181/13 136/182/14 134/180/12
f 135/181/13 137/183/15 138/184/16 136/182/14
f 137/183/15 139/185/17 140/186/18 138/184/16
f 139/185/17 141/187/19 142/188/20 140/186/18
f 141/187/19 143/189/21 144/190/22 142/188/20
f 143/189/21 145/191/23 146/192/24 144/190/22
f 145/191/23 147/193/25 148/194/26 146/192/24
f 147/193/25 149/195/27 150/196/28 148/194/26
f 149/195/27 151/197/29 152/198/30 150/196/28
f 151/197/29 153/199/31 154/200/32 152/198/30
f 153/199/31 155/201/33 156/202/34 154/200/32
f 155/201/33 157/203/35 158/204/36 156/202/34
f 157/203/35 159/205/37 160/206/38 158/204/36
f 159/205/37 161/207/39 162/208/40 160/206/38
f 161/207/39 123/209/1 126/210/4 162/208/40
s 2
f 21/42/41 22/43/42 42/88/43 41/63/44
f 22/43/42 23/44/45 43/90/46 42/88/43
f 23/44/45 24/45/47 44/92/48 43/90/46
f 24/45/47 25/46/49 45/94/50 44/92/48
f 25/46/49 26/47/51 46/96/52 45/94/50
f 26/47/51 27/48/53 47/98/54 46/96/52
f 27/48/53 28/49/55 48/100/56 47/98/54
f 28/49/55 29/50/57 49/102/58 48/100/56
f 29/50/57 30/51/59 50/104/60 49/102/58
f 30/51/59 31/52/61 51/106/62 50/104/60
f 31/52/61 32/53/63 52/108/64 51/106/62
f 32/53/63 33/54/65 53/110/66 52/108/64
f 33/54/65 34/55/67 54/112/68 53/110/66
f 34/55/67 35/56/69 55/114/70 54/112/68
f 35/56/69 36/57/71 56/116/72 55/114/70
f 36/57/71 37/58/73 57/118/74 56/116/72
f 37/58/73 38/59/75 58/120/76 57/118/74
f 38/59/75 39/60/77 59/122/78 58/120/76
f 39/60/77 40/61/79 60/124/80 59/122/78
f 40/61/79 21/62/41 41/126/44 60/124/80
s 3
f 2/2/81 1/1/82 81/84/83
f 3/3/84 2/2/81 81/84/83
f 4/4/85 3/3/84 81/84/83
f 5/5/86 4/4/85 81/84/83
f 6/6/87 5/5/86 81/84/83
f 7/7/88 6/6/87 81/84/83
f 8/8/89 7/7/88 81/84/83
f 9/9/90 8/8/89 81/84/83
f 10/10/91 9/9/90 81/84/83
f 11/11/92 10/10/91 81/84/83
f 12/12/93 11/11/92 81/84/83
f 13/13/94 12/12/93 81/84/83
f 14/14/95 13/13/94 81/84/83
f 15/15/96 14/14/95 81/84/83
f 16/16/97 15/15/96 81/84/83
f 17/17/98 16/16/97 81/84/83
f 18/18/99 17/17/98 81/84/83
f 19/19/100 18/18/99 81/84/83
f 20/20/101 19/19/100 81/84/83
f 1/1/82 20/20/101 81/84/83
s 4
f 61/82/102 62/81/103 82/85/104
f 62/81/103 63/80/105 82/85/104
f 63/80/105 64/79/106 82/85/104
f 64/79/106 65/78/107 82/85/104
f 65/78/107 66/77/108 82/85/104
f 66/77/108 67/76/109 82/85/104
f 67/76/109 68/75/110 82/85/104
f 68/75/110 69/74/111 82/85/104
f 69/74/111 70/73/112 82/85/104
f 70/73/112 71/72/113 82/85/104
f 71/72/113 72/71/114 82/85/104
f 72/71/114 73/70/115 82/85/104
f 73/70/115 74/69/116 82/85/104
f 74/69/116 75/68/117 82/85/104
f 75/68/117 76/67/118 82/85/104
f 76/67/118 77/66/119 82/85/104
f 77/66/119 78/65/120 82/85/104
f 78/65/120 79/64/121 82/85/104
f 79/64/121 80/83/122 82/85/104
f 80/83/122 61/82/102 82/85/104
s 2
f 83/86/123 84/166/124 122/164/125 121/127/126
f 84/87/124 83/89/123 85/91/127 86/128/128
f 86/128/128 85/91/127 87/93/129 88/130/130
f 88/130/130 87/93/129 89/95/131 90/132/132
f 90/132/132 89/95/131 91/97/133 92/134/134
f 92/134/134 91/97/133 93/99/135 94/136/136
f 94/136/136 93/99/135 95/101/137 96/138/138
f 96/138/138 95/101/137 97/103/139 98/140/140
f 98/140/140 97/103/139 99/105/141 100/142/142
f 100/142/142 99/105/141 101/107/143 102/144/144
f 102/144/144 101/107/143 103/109/145 104/146/146
f 104/146/146 103/109/145 105/111/147 106/148/148
f 106/148/148 105/111/147 107/113/149 108/150/150
f 108/150/150 107/113/149 109/115/151 110/152/152
f 110/152/152 109/115/151 111/117/153 112/154/154
f 112/154/154 111/117/153 113/119/155 114/156/156
f 114/156/156 113/119/155 115/121/157 116/158/158
f 116/158/158 115/121/157 117/123/159 118/160/160
f 118/160/160 117/123/159 119/125/161 120/162/162
f 120/162/162 119/125/161 121/127/126 122/164/125
f 41/63/44 42/88/43 85/91/127 83/89/123
f 42/88/43 43/90/46 87/93/129 85/91/127
f 43/90/46 44/92/48 89/95/131 87/93/129
f 44/92/48 45/94/50 91/97/133 89/95/131
f 45/94/50 46/96/52 93/99/135 91/97/133
f 46/96/52 47/98/54 95/101/137 93/99/135
f 47/98/54 48/100/56 97/103/139 95/101/137
f 48/100/56 49/102/58 99/105/141 97/103/139
f 49/102/58 50/104/60 101/107/143 99/105/141
f 50/104/60 51/106/62 103/109/145 101/107/143
f 51/106/62 52/108/64 105/111/147 103/109/145
f 52/108/64 53/110/66 107/113/149 105/111/147
f 53/110/66 54/112/68 109/115/151 107/113/149
f 54/112/68 55/114/70 111/117/153 109/115/151
f 55/114/70 56/116/72 113/119/155 111/117/153
f 56/116/72 57/118/74 115/121/157 113/119/155
f 57/118/74 58/120/76 117/123/159 115/121/157
f 58/120/76 59/122/78 119/125/161 117/123/159
f 59/122/78 60/124/80 121/127/126 119/125/161
f 60/124/80 41/126/44 83/86/123 121/127/126
f 84/87/124 86/128/128 62/131/163 61/129/164
f 86/128/128 88/130/130 63/133/165 62/131/163
f 88/130/130 90/132/132 64/135/166 63/133/165
f 90/132/132 92/134/134 65/137/167 64/135/166
f 92/134/134 94/136/136 66/139/168 65/137/167
f 94/136/136 96/138/138 67/141/169 66/139/168
f 96/138/138 98/140/140 68/143/170 67/141/169
f 98/140/140 100/142/142 69/145/171 68/143/170
f 100/142/142 102/144/144 70/147/172 69/145/171
f 102/144/144 104/146/146 71/149/173 70/147/172
f 104/146/146 106/148/148 72/151/174 71/149/173
f 106/148/148 108/150/150 73/153/175 72/151/174
f 108/150/150 110/152/152 74/155/176 73/153/175
f 110/152/152 112/154/154 75/157/177 74/155/176
f 112/154/154 114/156/156 76/159/178 75/157/177
f 114/156/156 116/158/158 77/161/179 76/159/178
f 116/158/158 118/160/160 78/163/180 77/161/179
f 118/160/160 120/162/162 79/165/181 78/163/180
f 120/162/162 122/164/125 80/168/182 79/165/181
f 122/164/125 84/166/124 61/167/164 80/168/182
s 3
f 1/21/82 2/22/81 124/170/183 123/169/184
s 6
f 22/43/185 21/42/186 126/172/187 125/171/188
s 3
f 2/22/81 3/23/84 127/173/189 124/170/183
s 6
f 23/44/190 22/43/185 125/171/188 128/174/191
s 3
f 3/23/84 4/24/85 129/175/192 127/173/189
s 6
f 24/45/193 23/44/190 128/174/191 130/176/194
s 3
f 4/24/85 5/25/86 131/177/195 129/175/192
s 6
f 25/46/196 24/45/193 130/176/194 132/178/197
s 3
f 5/25/86 6/26/87 133/179/198 131/177/195
s 6
f 26/47/199 25/46/196 132/178/197 134/180/200
s 3
f 6/26/87 7/27/88 135/181/201 133/179/198
s 6
f 27/48/202 26/47/199 134/180/200 136/182/203
s 3
f 7/27/88 8/28/89 137/183/204 135/181/201
s 6
f 28/49/205 27/48/202 136/182/203 138/184/206
s 3
f 8/28/89 9/29/90 139/185/207 137/183/204
s 6
f 29/50/208 28/49/205 138/184/206 140/186/209
s 3
f 9/29/90 10/30/91 141/187/210 139/185/207
s 6
f 30/51/211 29/50/208 140/186/209 142/188/212
s 3
f 10/30/91 11/31/92 143/189/213 141/187/210
s 6
f 31/52/214 30/51/211 142/188/212 144/190/215
s 3
f 11/31/92 12/32/93 145/191/216 143/189/213
s 6
f 32/53/217 31/52/214 144/190/215 146/192/218
s 3
f 12/32/93 13/33/94 147/193/219 145/191/216
s 6
f 33/54/220 32/53/217 146/192/218 148/194/221
s 3
f 13/33/94 14/34/95 149/195/222 147/193/219
s 6
f 34/55/223 33/54/220 148/194/221 150/196/224
s 3
f 14/34/95 15/35/96 151/197/225 149/195/222
s 6
f 35/56/226 34/55/223 150/196/224 152/198/227
s 3
f 15/35/96 16/36/97 153/199/228 151/197/225
s 6
f 36/57/229 35/56/226 152/198/227 154/200/230
s 3
f 16/36/97 17/37/98 155/201/231 153/199/228
s 6
f 37/58/232 36/57/229 154/200/230 156/202/233
s 3
f 17/37/98 18/38/99 157/203/234 155/201/231
s 6
f 38/59/235 37/58/232 156/202/233 158/204/236
s 3
f 18/38/99 19/39/100 159/205/237 157/203/234
s 6
f 39/60/238 38/59/235 158/204/236 160/206/239
s 3
f 19/39/100 20/40/101 161/207/240 159/205/237
s 6
f 40/61/241 39/60/238 160/206/239 162/208/242
s 3
f 20/40/101 1/41/82 123/209/184 161/207/240
s 6
f 21/62/186 40/61/241 162/208/242 126/210/187
